<?xml version="1.0" encoding="UTF-8"?>
<svg version="1.1" xmlns="http://www.w3.org/2000/svg" width="180" height="180">
<path d="M0 0 C59.4 0 118.8 0 180 0 C180 59.4 180 118.8 180 180 C120.6 180 61.2 180 0 180 C0 120.6 0 61.2 0 0 Z " fill="#4F4FF9" transform="translate(0,0)"/>
<path d="M0 0 C0.67023193 0.32742187 1.34046387 0.65484375 2.03100586 0.9921875 C6.43359204 3.24153177 10.15260919 5.64407699 13.6875 9.125 C15.12175168 13.55884257 14.06404236 17.38586129 12 21.4375 C6.6354378 27.67199121 6.6354378 27.67199121 2 28.75 C-2.18008842 27.96130407 -4.96323994 26.10062868 -8.45703125 23.73046875 C-18.92140718 17.84694138 -31.95505879 16.9571489 -43.4921875 20.12109375 C-55.66203785 24.17210958 -64.45811784 32.11987454 -70.19140625 43.484375 C-75.34429783 55.62149942 -75.17429042 70.92921309 -70.65234375 83.3203125 C-68.05102897 88.76563032 -64.84284444 93.95913895 -60.2277832 97.90942383 C-57.81814701 100.69686149 -57.83211613 102.05654589 -57.88671875 105.6953125 C-57.89928711 107.28666016 -57.89928711 107.28666016 -57.91210938 108.91015625 C-57.94111328 110.01230469 -57.97011719 111.11445313 -58 112.25 C-58.01450195 113.91482422 -58.01450195 113.91482422 -58.02929688 115.61328125 C-58.14379699 123.78759398 -58.14379699 123.78759398 -59.3125 126.125 C-48.8922128 118.62251313 -48.8922128 118.62251313 -39.3125 110.125 C-37.26819188 110.06768295 -35.22363369 110.01508668 -33.17871094 109.98730469 C-21.52021529 109.75993059 -11.86483321 107.64813144 -2.4375 100.25 C0.93365578 97.95761407 2.70307967 97.31009558 6.6953125 97.56640625 C11.17145331 98.82148103 14.54963205 102.17382374 16.8515625 106.12109375 C18.20900911 109.37515968 18.1610698 111.63242276 17.6875 115.125 C13.03923672 124.00790991 1.85773905 128.50228351 -6.9375 132.0625 C-25.62826468 137.81940904 -46.29333787 135.18500971 -63.5703125 126.484375 C-81.72682094 115.66127526 -92.02539073 99.85929554 -98.3125 80.125 C-99.63096846 74.59991042 -99.53482262 69.15310476 -99.5625 63.5 C-99.583125 62.47003906 -99.60375 61.44007812 -99.625 60.37890625 C-99.71639988 42.21318009 -92.16999412 26.85757392 -79.6875 14 C-58.52535452 -6.87769026 -26.78267235 -13.08764661 0 0 Z " fill="#FBFBFE" transform="translate(126.3125,21.875)"/>
<path d="M0 0 C0.66 0 1.32 0 2 0 C2 5.28 2 10.56 2 16 C2.66 16 3.32 16 4 16 C4 12.7 4 9.4 4 6 C4.99 6.33 5.98 6.66 7 7 C7 9.97 7 12.94 7 16 C7.66 16 8.32 16 9 16 C9.33 14.68 9.66 13.36 10 12 C10.33 13.32 10.66 14.64 11 16 C11.66 16 12.32 16 13 16 C13 13.69 13 11.38 13 9 C13.99 9 14.98 9 16 9 C16 11.31 16 13.62 16 16 C16.66 16 17.32 16 18 16 C18 12.7 18 9.4 18 6 C18.66 6 19.32 6 20 6 C20 9.3 20 12.6 20 16 C20.66 16 21.32 16 22 16 C22 11.38 22 6.76 22 2 C22.99 1.67 23.98 1.34 25 1 C25 5.95 25 10.9 25 16 C25.66 16 26.32 16 27 16 C27 14.02 27 12.04 27 10 C27.66 10 28.32 10 29 10 C29 11.98 29 13.96 29 16 C29.66 16 30.32 16 31 16 C31.33 15.01 31.66 14.02 32 13 C32.66 13 33.32 13 34 13 C34 13.99 34 14.98 34 16 C34.66 16 35.32 16 36 16 C36 11.05 36 6.1 36 1 C36.66 1 37.32 1 38 1 C38 5.95 38 10.9 38 16 C38.66 16 39.32 16 40 16 C40 13.69 40 11.38 40 9 C40.99 8.67 41.98 8.34 43 8 C43 10.64 43 13.28 43 16 C43.66 16 44.32 16 45 16 C45 12.7 45 9.4 45 6 C45.99 6 46.98 6 48 6 C48.495 9.96 48.495 9.96 49 14 C49.99 14 50.98 14 52 14 C52 16.64 52 19.28 52 22 C51.01 22 50.02 22 49 22 C48.67 24.31 48.34 26.62 48 29 C47.01 29.33 46.02 29.66 45 30 C45 26.37 45 22.74 45 19 C44.34 19 43.68 19 43 19 C43 21.97 43 24.94 43 28 C42.01 27.67 41.02 27.34 40 27 C40 24.36 40 21.72 40 19 C39.34 19 38.68 19 38 19 C38 23.95 38 28.9 38 34 C37.34 34 36.68 34 36 34 C36 29.05 36 24.1 36 19 C35.34 19 34.68 19 34 19 C34 19.99 34 20.98 34 22 C33.01 22 32.02 22 31 22 C31 21.01 31 20.02 31 19 C30.34 19 29.68 19 29 19 C29 21.31 29 23.62 29 26 C28.34 26 27.68 26 27 26 C27 23.69 27 21.38 27 19 C26.34 19 25.68 19 25 19 C25 23.62 25 28.24 25 33 C24.01 33 23.02 33 22 33 C22 28.38 22 23.76 22 19 C21.34 19 20.68 19 20 19 C20 22.63 20 26.26 20 30 C19.34 30 18.68 30 18 30 C18 26.37 18 22.74 18 19 C17.34 19 16.68 19 16 19 C16 21.97 16 24.94 16 28 C15.01 28 14.02 28 13 28 C13 25.03 13 22.06 13 19 C12.34 19 11.68 19 11 19 C11 20.65 11 22.3 11 24 C10.34 24 9.68 24 9 24 C9 22.35 9 20.7 9 19 C8.34 19 7.68 19 7 19 C7 22.63 7 26.26 7 30 C6.01 30 5.02 30 4 30 C4 26.37 4 22.74 4 19 C3.34 19 2.68 19 2 19 C2 24.61 2 30.22 2 36 C1.01 35.67 0.02 35.34 -1 35 C-1.33 32.36 -1.66 29.72 -2 27 C-2.99 27 -3.98 27 -5 27 C-5 24.36 -5 21.72 -5 19 C-5.66 19 -6.32 19 -7 19 C-7 20.65 -7 22.3 -7 24 C-7.66 24 -8.32 24 -9 24 C-9 20.04 -9 16.08 -9 12 C-8.34 12 -7.68 12 -7 12 C-7 13.32 -7 14.64 -7 16 C-6.34 16 -5.68 16 -5 16 C-5 13.69 -5 11.38 -5 9 C-4.01 9 -3.02 9 -2 9 C-1.855625 7.700625 -1.71125 6.40125 -1.5625 5.0625 C-1.125 1.125 -1.125 1.125 0 0 Z " fill="#E6E6FE" transform="translate(79,68)"/>
<path d="M0 0 C0.99 0 1.98 0 3 0 C3.33 2.64 3.66 5.28 4 8 C4.99 8 5.98 8 7 8 C7 10.64 7 13.28 7 16 C6.01 16 5.02 16 4 16 C3.67 18.31 3.34 20.62 3 23 C2.01 23.33 1.02 23.66 0 24 C0 20.37 0 16.74 0 13 C-0.66 13 -1.32 13 -2 13 C-2 15.97 -2 18.94 -2 22 C-2.99 21.67 -3.98 21.34 -5 21 C-5 18.36 -5 15.72 -5 13 C-5.66 12.67 -6.32 12.34 -7 12 C-7 11.34 -7 10.68 -7 10 C-6.34 10 -5.68 10 -5 10 C-5 7.69 -5 5.38 -5 3 C-4.01 2.67 -3.02 2.34 -2 2 C-2 4.64 -2 7.28 -2 10 C-1.34 10 -0.68 10 0 10 C0 6.7 0 3.4 0 0 Z " fill="#E5E5FE" transform="translate(124,74)"/>
<path d="M0 0 C0.99 0.33 1.98 0.66 3 1 C3 3.97 3 6.94 3 10 C3.66 10 4.32 10 5 10 C5.33 8.68 5.66 7.36 6 6 C6.33 7.32 6.66 8.64 7 10 C7.66 10 8.32 10 9 10 C9 7.69 9 5.38 9 3 C9.99 3 10.98 3 12 3 C12 5.31 12 7.62 12 10 C12.66 10.33 13.32 10.66 14 11 C12.68 11 11.36 11 10 11 C10.66 11.66 11.32 12.32 12 13 C12.1953125 15.1640625 12.1953125 15.1640625 12.125 17.625 C12.10695313 18.44226563 12.08890625 19.25953125 12.0703125 20.1015625 C12.03550781 21.04128906 12.03550781 21.04128906 12 22 C11.01 22 10.02 22 9 22 C9 19.03 9 16.06 9 13 C8.34 13 7.68 13 7 13 C7 14.65 7 16.3 7 18 C6.34 18 5.68 18 5 18 C5 16.35 5 14.7 5 13 C4.34 13 3.68 13 3 13 C3 16.63 3 20.26 3 24 C2.01 24 1.02 24 0 24 C0 20.37 0 16.74 0 13 C-0.66 12.67 -1.32 12.34 -2 12 C-2 11.34 -2 10.68 -2 10 C-1.34 10 -0.68 10 0 10 C0 6.7 0 3.4 0 0 Z " fill="#CFCFFD" transform="translate(83,74)"/>
<path d="M0 0 C0.66 0 1.32 0 2 0 C2 4.95 2 9.9 2 15 C2.66 15.33 3.32 15.66 4 16 C2.68 16 1.36 16 0 16 C0 21.28 0 26.56 0 32 C-0.33 32 -0.66 32 -1 32 C-1 27.38 -1 22.76 -1 18 C-1.66 18 -2.32 18 -3 18 C-3 21.63 -3 25.26 -3 29 C-3.66 29 -4.32 29 -5 29 C-5 25.37 -5 21.74 -5 18 C-5.99 18 -6.98 18 -8 18 C-8 20.64 -8 23.28 -8 26 C-8.33 26 -8.66 26 -9 26 C-9 22.7 -9 19.4 -9 16 C-7.68 16 -6.36 16 -5 16 C-5 12.37 -5 8.74 -5 5 C-4.34 5 -3.68 5 -3 5 C-3 8.3 -3 11.6 -3 15 C-2.34 15 -1.68 15 -1 15 C-1.01160156 14.00097656 -1.02320312 13.00195312 -1.03515625 11.97265625 C-1.04417969 10.68230469 -1.05320312 9.39195313 -1.0625 8.0625 C-1.07410156 6.77472656 -1.08570312 5.48695312 -1.09765625 4.16015625 C-1 1 -1 1 0 0 Z " fill="#D2D2FE" transform="translate(102,69)"/>
<path d="M0 0 C0.66 0 1.32 0 2 0 C2 5.28 2 10.56 2 16 C2.66 16.33 3.32 16.66 4 17 C3.34 17 2.68 17 2 17 C2 22.28 2 27.56 2 33 C1.34 33 0.68 33 0 33 C0 28.05 0 23.1 0 18 C-0.66 18 -1.32 18 -2 18 C-2 18.99 -2 19.98 -2 21 C-2.66 21 -3.32 21 -4 21 C-4 19.35 -4 17.7 -4 16 C-2.68 16 -1.36 16 0 16 C0 10.72 0 5.44 0 0 Z " fill="#F3F3FE" transform="translate(115,69)"/>
<path d="M0 0 C0.33 0 0.66 0 1 0 C1 5.28 1 10.56 1 16 C-0.32 16 -1.64 16 -3 16 C-3 19.3 -3 22.6 -3 26 C-3.33 26 -3.66 26 -4 26 C-4 23.36 -4 20.72 -4 18 C-4.66 18 -5.32 18 -6 18 C-6 19.65 -6 21.3 -6 23 C-6.66 23 -7.32 23 -8 23 C-8 19.04 -8 15.08 -8 11 C-7.34 11 -6.68 11 -6 11 C-6 12.32 -6 13.64 -6 15 C-5.34 15 -4.68 15 -4 15 C-4 12.69 -4 10.38 -4 8 C-3.01 8 -2.02 8 -1 8 C-0.67 5.36 -0.34 2.72 0 0 Z " fill="#CFCFFD" transform="translate(78,69)"/>
<path d="M0 0 C0.66 0 1.32 0 2 0 C2 3.63 2 7.26 2 11 C2.66 11.33 3.32 11.66 4 12 C3.34 12 2.68 12 2 12 C2 15.96 2 19.92 2 24 C1.34 24 0.68 24 0 24 C0 20.37 0 16.74 0 13 C-0.99 13 -1.98 13 -3 13 C-3 15.64 -3 18.28 -3 21 C-3.33 21 -3.66 21 -4 21 C-4 17.7 -4 14.4 -4 11 C-2.68 11 -1.36 11 0 11 C0 7.37 0 3.74 0 0 Z " fill="#F0F0FE" transform="translate(97,74)"/>
<path d="M0 0 C0.99 0.33 1.98 0.66 3 1 C3 3.97 3 6.94 3 10 C3.66 10.33 4.32 10.66 5 11 C3.68 11 2.36 11 1 11 C1.66 11.66 2.32 12.32 3 13 C3.1953125 15.6015625 3.1953125 15.6015625 3.125 18.625 C3.10695313 19.62789062 3.08890625 20.63078125 3.0703125 21.6640625 C3.03550781 22.82035156 3.03550781 22.82035156 3 24 C2.01 24 1.02 24 0 24 C0 20.37 0 16.74 0 13 C-0.66 12.67 -1.32 12.34 -2 12 C-2 11.34 -2 10.68 -2 10 C-1.34 10 -0.68 10 0 10 C0 6.7 0 3.4 0 0 Z " fill="#BBBBFD" transform="translate(83,74)"/>
<path d="M0 0 C0.33 0 0.66 0 1 0 C1.33 2.64 1.66 5.28 2 8 C2.99 8 3.98 8 5 8 C5 10.64 5 13.28 5 16 C4.01 16 3.02 16 2 16 C1.67 18.31 1.34 20.62 1 23 C0.67 23 0.34 23 0 23 C0 15.41 0 7.82 0 0 Z " fill="#BFBFFD" transform="translate(126,74)"/>
<path d="M0 0 C0.66 0 1.32 0 2 0 C2 2.64 2 5.28 2 8 C2.66 8.33 3.32 8.66 4 9 C2.68 9 1.36 9 0 9 C0 12.3 0 15.6 0 19 C-0.33 19 -0.66 19 -1 19 C-1 16.36 -1 13.72 -1 11 C-1.66 10.67 -2.32 10.34 -3 10 C-3 9.34 -3 8.68 -3 8 C-2.34 8 -1.68 8 -1 8 C-1.020625 6.865625 -1.04125 5.73125 -1.0625 4.5625 C-1 1 -1 1 0 0 Z " fill="#C0C0FD" transform="translate(120,76)"/>
<path d="M0 0 C0.66 0.33 1.32 0.66 2 1 C3.23098442 4.9167686 2.83220851 8.02389268 2 12 C1.34 12 0.68 12 0 12 C0 10.35 0 8.7 0 7 C-0.99 7 -1.98 7 -3 7 C-3 10.3 -3 13.6 -3 17 C-3.33 17 -3.66 17 -4 17 C-4 13.04 -4 9.08 -4 5 C-2.68 5 -1.36 5 0 5 C0 3.35 0 1.7 0 0 Z " fill="#F4F4FE" transform="translate(88,80)"/>
<path d="M0 0 C1.485 0.99 1.485 0.99 3 2 C2.34 2 1.68 2 1 2 C1 5.96 1 9.92 1 14 C0.34 14 -0.32 14 -1 14 C-1.02685938 11.85423363 -1.04633088 9.70837355 -1.0625 7.5625 C-1.07410156 6.36753906 -1.08570312 5.17257813 -1.09765625 3.94140625 C-1 1 -1 1 0 0 Z " fill="#F4F4FE" transform="translate(125,84)"/>
<path d="M0 0 C0.66 0 1.32 0 2 0 C2 0.99 2 1.98 2 3 C2.66 3.33 3.32 3.66 4 4 C2.68 4 1.36 4 0 4 C0 5.65 0 7.3 0 9 C-0.33 8.01 -0.66 7.02 -1 6 C-1.66 5.67 -2.32 5.34 -3 5 C-3 4.34 -3 3.68 -3 3 C-2.34 3 -1.68 3 -1 3 C-0.67 2.01 -0.34 1.02 0 0 Z " fill="#CBCBFD" transform="translate(111,81)"/>
</svg>
